<svg width="1280" height="440" viewBox="0 0 1280 440" xmlns="http://www.w3.org/2000/svg">
  <defs>
    <linearGradient id="bg" x1="0" y1="0" x2="1" y2="1">
      <stop offset="0" stop-color="#eef4fd"/>
      <stop offset="0.55" stop-color="#d6e4f7"/>
      <stop offset="1" stop-color="#c2d6f1"/>
    </linearGradient>
    <radialGradient id="halo" cx="0.76" cy="0.40" r="0.55">
      <stop offset="0" stop-color="#ffffff" stop-opacity="0.75"/>
      <stop offset="1" stop-color="#ffffff" stop-opacity="0"/>
    </radialGradient>
    <filter id="domeShadow" x="-30%" y="-30%" width="160%" height="160%">
      <feDropShadow dx="0" dy="10" stdDeviation="14" flood-color="#6f8bbf" flood-opacity="0.35"/>
    </filter>
    <clipPath id="domeClip">
      <rect x="620.0" y="0" width="520.0" height="364.0"/>
    </clipPath>
  </defs>

  <rect width="1280" height="440" fill="url(#bg)"/>
  <rect width="1280" height="440" fill="url(#halo)"/>

  <!-- faint grid -->
  <g stroke="#b9ccea" stroke-width="1" opacity="0.45">
    <path d="M0 110 H1280 M0 220 H1280 M0 330 H1280"/>
    <path d="M160 0 V440 M320 0 V440 M480 0 V440 M640 0 V440 M800 0 V440 M960 0 V440 M1120 0 V440"/>
  </g>

  <!-- geodesic dome -->
  <ellipse cx="880" cy="378" rx="230" ry="15" fill="#7e98c6" opacity="0.28"/>
  <g filter="url(#domeShadow)" clip-path="url(#domeClip)">
  <path d="M 705.49,189.02 L 685.84,207.38 L 727.39,163.77 Z" fill="#bfbfbf" stroke="#5a6470" stroke-width="0.9" stroke-linejoin="round"/>
<path d="M 1068.63,199.96 L 1017.04,155.44 L 1020.67,156.42 Z" fill="#f2f2f2" stroke="#5a6470" stroke-width="0.9" stroke-linejoin="round"/>
<path d="M 1094.97,450.13 L 1074.16,488.62 L 1098.08,440.24 Z" fill="#a1a1a1" stroke="#5a6470" stroke-width="0.9" stroke-linejoin="round"/>
<path d="M 832.05,115.17 L 858.32,111.19 L 901.90,110.15 Z" fill="#ebebeb" stroke="#5a6470" stroke-width="0.9" stroke-linejoin="round"/>
<path d="M 646.85,369.32 L 643.42,380.21 L 643.42,307.90 Z" fill="#9e9e9e" stroke="#5a6470" stroke-width="0.9" stroke-linejoin="round"/>
<path d="M 1101.74,258.96 L 1094.97,253.04 L 1068.63,199.96 Z" fill="#e9e9e9" stroke="#5a6470" stroke-width="0.9" stroke-linejoin="round"/>
<path d="M 760.00,144.10 L 788.79,127.66 L 832.05,115.17 Z" fill="#dedede" stroke="#5a6470" stroke-width="0.9" stroke-linejoin="round"/>
<path d="M 1101.74,258.96 L 1116.58,315.79 L 1094.97,253.04 Z" fill="#e1e1e1" stroke="#5a6470" stroke-width="0.9" stroke-linejoin="round"/>
<path d="M 658.26,437.04 L 643.42,380.21 L 646.85,369.32 Z" fill="#9e9e9e" stroke="#5a6470" stroke-width="0.9" stroke-linejoin="round"/>
<path d="M 665.03,245.87 L 685.84,207.38 L 705.49,189.02 Z" fill="#b5b5b5" stroke="#5a6470" stroke-width="0.9" stroke-linejoin="round"/>
<path d="M 705.49,189.02 L 727.39,163.77 L 760.00,144.10 Z" fill="#cbcbcb" stroke="#5a6470" stroke-width="0.9" stroke-linejoin="round"/>
<path d="M 694.80,485.16 L 691.37,496.04 L 658.26,437.04 Z" fill="#9e9e9e" stroke="#5a6470" stroke-width="0.9" stroke-linejoin="round"/>
<path d="M 1116.58,388.10 L 1108.25,375.78 L 1116.58,315.79 Z" fill="#cecece" stroke="#5a6470" stroke-width="0.9" stroke-linejoin="round"/>
<path d="M 967.36,124.47 L 952.05,129.78 L 901.90,110.15 Z" fill="#f6f6f6" stroke="#5a6470" stroke-width="0.9" stroke-linejoin="round"/>
<path d="M 1116.58,388.10 L 1098.08,440.24 L 1108.25,375.78 Z" fill="#c2c2c2" stroke="#5a6470" stroke-width="0.9" stroke-linejoin="round"/>
<path d="M 967.36,124.47 L 1017.04,155.44 L 952.05,129.78 Z" fill="#f9f9f9" stroke="#5a6470" stroke-width="0.9" stroke-linejoin="round"/>
<path d="M 658.26,299.51 L 643.42,307.90 L 665.03,245.87 Z" fill="#9e9e9e" stroke="#5a6470" stroke-width="0.9" stroke-linejoin="round"/>
<path d="M 1098.08,440.24 L 1074.16,488.62 L 1059.54,490.98 Z" fill="#a4a4a4" stroke="#5a6470" stroke-width="0.9" stroke-linejoin="round"/>
<path d="M 1068.63,199.96 L 1054.51,203.59 L 1017.04,155.44 Z" fill="#f6f6f6" stroke="#5a6470" stroke-width="0.9" stroke-linejoin="round"/>
<path d="M 646.85,369.32 L 643.42,307.90 L 658.26,299.51 Z" fill="#9e9e9e" stroke="#5a6470" stroke-width="0.9" stroke-linejoin="round"/>
<path d="M 1094.97,253.04 L 1054.51,203.59 L 1068.63,199.96 Z" fill="#f2f2f2" stroke="#5a6470" stroke-width="0.9" stroke-linejoin="round"/>
<path d="M 880.00,125.48 L 832.05,115.17 L 901.90,110.15 Z" fill="#f2f2f2" stroke="#5a6470" stroke-width="0.9" stroke-linejoin="round"/>
<path d="M 1116.58,315.79 L 1098.08,308.85 L 1094.97,253.04 Z" fill="#e4e4e4" stroke="#5a6470" stroke-width="0.9" stroke-linejoin="round"/>
<path d="M 671.25,423.18 L 658.26,437.04 L 646.85,369.32 Z" fill="#9e9e9e" stroke="#5a6470" stroke-width="0.9" stroke-linejoin="round"/>
<path d="M 665.03,245.87 L 705.49,189.02 L 691.37,234.45 Z" fill="#bababa" stroke="#5a6470" stroke-width="0.9" stroke-linejoin="round"/>
<path d="M 807.95,142.96 L 760.00,144.10 L 832.05,115.17 Z" fill="#e6e6e6" stroke="#5a6470" stroke-width="0.9" stroke-linejoin="round"/>
<path d="M 671.25,423.18 L 694.80,485.16 L 658.26,437.04 Z" fill="#9e9e9e" stroke="#5a6470" stroke-width="0.9" stroke-linejoin="round"/>
<path d="M 901.90,110.15 L 952.05,129.78 L 880.00,125.48 Z" fill="#f8f8f8" stroke="#5a6470" stroke-width="0.9" stroke-linejoin="round"/>
<path d="M 1116.58,315.79 L 1108.25,375.78 L 1098.08,308.85 Z" fill="#dadada" stroke="#5a6470" stroke-width="0.9" stroke-linejoin="round"/>
<path d="M 742.96,180.51 L 705.49,189.02 L 760.00,144.10 Z" fill="#d4d4d4" stroke="#5a6470" stroke-width="0.9" stroke-linejoin="round"/>
<path d="M 658.26,299.51 L 665.03,245.87 L 691.37,234.45 Z" fill="#adadad" stroke="#5a6470" stroke-width="0.9" stroke-linejoin="round"/>
<path d="M 1108.25,375.78 L 1098.08,440.24 L 1077.59,433.05 Z" fill="#c3c3c3" stroke="#5a6470" stroke-width="0.9" stroke-linejoin="round"/>
<path d="M 1098.08,440.24 L 1059.54,490.98 L 1077.59,433.05 Z" fill="#b3b3b3" stroke="#5a6470" stroke-width="0.9" stroke-linejoin="round"/>
<path d="M 1017.04,155.44 L 1000.00,173.32 L 952.05,129.78 Z" fill="#fdfdfd" stroke="#5a6470" stroke-width="0.9" stroke-linejoin="round"/>
<path d="M 807.95,142.96 L 832.05,115.17 L 880.00,125.48 Z" fill="#efefef" stroke="#5a6470" stroke-width="0.9" stroke-linejoin="round"/>
<path d="M 1017.04,155.44 L 1054.51,203.59 L 1000.00,173.32 Z" fill="#fcfcfc" stroke="#5a6470" stroke-width="0.9" stroke-linejoin="round"/>
<path d="M 1094.97,253.04 L 1074.16,254.65 L 1054.51,203.59 Z" fill="#f3f3f3" stroke="#5a6470" stroke-width="0.9" stroke-linejoin="round"/>
<path d="M 691.37,234.45 L 705.49,189.02 L 742.96,180.51 Z" fill="#cbcbcb" stroke="#5a6470" stroke-width="0.9" stroke-linejoin="round"/>
<path d="M 742.96,180.51 L 760.00,144.10 L 807.95,142.96 Z" fill="#e0e0e0" stroke="#5a6470" stroke-width="0.9" stroke-linejoin="round"/>
<path d="M 1094.97,253.04 L 1098.08,308.85 L 1074.16,254.65 Z" fill="#ebebeb" stroke="#5a6470" stroke-width="0.9" stroke-linejoin="round"/>
<path d="M 671.25,357.48 L 646.85,369.32 L 658.26,299.51 Z" fill="#9e9e9e" stroke="#5a6470" stroke-width="0.9" stroke-linejoin="round"/>
<path d="M 671.25,423.18 L 646.85,369.32 L 671.25,357.48 Z" fill="#9e9e9e" stroke="#5a6470" stroke-width="0.9" stroke-linejoin="round"/>
<path d="M 714.82,462.74 L 694.80,485.16 L 671.25,423.18 Z" fill="#9e9e9e" stroke="#5a6470" stroke-width="0.9" stroke-linejoin="round"/>
<path d="M 1098.08,308.85 L 1108.25,375.78 L 1077.59,360.75 Z" fill="#dcdcdc" stroke="#5a6470" stroke-width="0.9" stroke-linejoin="round"/>
<path d="M 952.05,129.78 L 927.95,157.56 L 880.00,125.48 Z" fill="#fcfcfc" stroke="#5a6470" stroke-width="0.9" stroke-linejoin="round"/>
<path d="M 1077.59,433.05 L 1059.54,490.98 L 1027.58,481.99 Z" fill="#b2b2b2" stroke="#5a6470" stroke-width="0.9" stroke-linejoin="round"/>
<path d="M 1108.25,375.78 L 1077.59,433.05 L 1077.59,360.75 Z" fill="#d0d0d0" stroke="#5a6470" stroke-width="0.9" stroke-linejoin="round"/>
<path d="M 658.26,299.51 L 691.37,234.45 L 694.80,295.87 Z" fill="#b3b3b3" stroke="#5a6470" stroke-width="0.9" stroke-linejoin="round"/>
<path d="M 952.05,129.78 L 1000.00,173.32 L 927.95,157.56 Z" fill="#fefefe" stroke="#5a6470" stroke-width="0.9" stroke-linejoin="round"/>
<path d="M 1054.51,203.59 L 1074.16,254.65 L 1032.61,228.83 Z" fill="#f8f8f8" stroke="#5a6470" stroke-width="0.9" stroke-linejoin="round"/>
<path d="M 1054.51,203.59 L 1032.61,228.83 L 1000.00,173.32 Z" fill="#fcfcfc" stroke="#5a6470" stroke-width="0.9" stroke-linejoin="round"/>
<path d="M 671.25,357.48 L 658.26,299.51 L 694.80,295.87 Z" fill="#a2a2a2" stroke="#5a6470" stroke-width="0.9" stroke-linejoin="round"/>
<path d="M 858.10,160.64 L 807.95,142.96 L 880.00,125.48 Z" fill="#f4f4f4" stroke="#5a6470" stroke-width="0.9" stroke-linejoin="round"/>
<path d="M 1074.16,254.65 L 1098.08,308.85 L 1059.54,293.88 Z" fill="#ededed" stroke="#5a6470" stroke-width="0.9" stroke-linejoin="round"/>
<path d="M 696.91,406.13 L 671.25,423.18 L 671.25,357.48 Z" fill="#9e9e9e" stroke="#5a6470" stroke-width="0.9" stroke-linejoin="round"/>
<path d="M 691.37,234.45 L 742.96,180.51 L 739.33,233.30 Z" fill="#d0d0d0" stroke="#5a6470" stroke-width="0.9" stroke-linejoin="round"/>
<path d="M 792.64,186.93 L 742.96,180.51 L 807.95,142.96 Z" fill="#e5e5e5" stroke="#5a6470" stroke-width="0.9" stroke-linejoin="round"/>
<path d="M 696.91,406.13 L 714.82,462.74 L 671.25,423.18 Z" fill="#9e9e9e" stroke="#5a6470" stroke-width="0.9" stroke-linejoin="round"/>
<path d="M 880.00,125.48 L 927.95,157.56 L 858.10,160.64 Z" fill="#fafafa" stroke="#5a6470" stroke-width="0.9" stroke-linejoin="round"/>
<path d="M 1098.08,308.85 L 1077.59,360.75 L 1059.54,293.88 Z" fill="#e6e6e6" stroke="#5a6470" stroke-width="0.9" stroke-linejoin="round"/>
<path d="M 694.80,295.87 L 691.37,234.45 L 739.33,233.30 Z" fill="#c5c5c5" stroke="#5a6470" stroke-width="0.9" stroke-linejoin="round"/>
<path d="M 1059.54,293.88 L 1032.61,228.83 L 1074.16,254.65 Z" fill="#f5f5f5" stroke="#5a6470" stroke-width="0.9" stroke-linejoin="round"/>
<path d="M 792.64,186.93 L 807.95,142.96 L 858.10,160.64 Z" fill="#efefef" stroke="#5a6470" stroke-width="0.9" stroke-linejoin="round"/>
<path d="M 1077.59,433.05 L 1027.58,481.99 L 1035.17,416.59 Z" fill="#c1c1c1" stroke="#5a6470" stroke-width="0.9" stroke-linejoin="round"/>
<path d="M 1077.59,360.75 L 1077.59,433.05 L 1035.17,416.59 Z" fill="#d0d0d0" stroke="#5a6470" stroke-width="0.9" stroke-linejoin="round"/>
<path d="M 739.33,233.30 L 742.96,180.51 L 792.64,186.93 Z" fill="#dddddd" stroke="#5a6470" stroke-width="0.9" stroke-linejoin="round"/>
<path d="M 1000.00,173.32 L 971.21,208.29 L 927.95,157.56 Z" fill="#ffffff" stroke="#5a6470" stroke-width="0.9" stroke-linejoin="round"/>
<path d="M 1000.00,173.32 L 1032.61,228.83 L 971.21,208.29 Z" fill="#fdfdfd" stroke="#5a6470" stroke-width="0.9" stroke-linejoin="round"/>
<path d="M 671.25,357.48 L 694.80,295.87 L 714.82,356.44 Z" fill="#a8a8a8" stroke="#5a6470" stroke-width="0.9" stroke-linejoin="round"/>
<path d="M 696.91,406.13 L 671.25,357.48 L 714.82,356.44 Z" fill="#9e9e9e" stroke="#5a6470" stroke-width="0.9" stroke-linejoin="round"/>
<path d="M 696.91,406.13 L 741.75,421.49 L 714.82,462.74 Z" fill="#9e9e9e" stroke="#5a6470" stroke-width="0.9" stroke-linejoin="round"/>
<path d="M 927.95,157.56 L 901.68,200.20 L 858.10,160.64 Z" fill="#fafafa" stroke="#5a6470" stroke-width="0.9" stroke-linejoin="round"/>
<path d="M 1059.54,293.88 L 1077.59,360.75 L 1027.58,344.47 Z" fill="#e6e6e6" stroke="#5a6470" stroke-width="0.9" stroke-linejoin="round"/>
<path d="M 741.75,421.49 L 772.38,483.30 L 714.82,462.74 Z" fill="#9e9e9e" stroke="#5a6470" stroke-width="0.9" stroke-linejoin="round"/>
<path d="M 1005.54,272.69 L 1032.61,228.83 L 1059.54,293.88 Z" fill="#f5f5f5" stroke="#5a6470" stroke-width="0.9" stroke-linejoin="round"/>
<path d="M 1035.17,416.59 L 1027.58,481.99 L 982.46,461.06 Z" fill="#bebebe" stroke="#5a6470" stroke-width="0.9" stroke-linejoin="round"/>
<path d="M 841.01,203.66 L 792.64,186.93 L 858.10,160.64 Z" fill="#f0f0f0" stroke="#5a6470" stroke-width="0.9" stroke-linejoin="round"/>
<path d="M 1077.59,360.75 L 1035.17,416.59 L 1027.58,344.47 Z" fill="#dbdbdb" stroke="#5a6470" stroke-width="0.9" stroke-linejoin="round"/>
<path d="M 694.80,295.87 L 739.33,233.30 L 749.47,297.33 Z" fill="#c8c8c8" stroke="#5a6470" stroke-width="0.9" stroke-linejoin="round"/>
<path d="M 927.95,157.56 L 971.21,208.29 L 901.68,200.20 Z" fill="#fdfdfd" stroke="#5a6470" stroke-width="0.9" stroke-linejoin="round"/>
<path d="M 696.91,406.13 L 714.82,356.44 L 741.75,421.49 Z" fill="#9e9e9e" stroke="#5a6470" stroke-width="0.9" stroke-linejoin="round"/>
<path d="M 1005.54,272.69 L 971.21,208.29 L 1032.61,228.83 Z" fill="#fafafa" stroke="#5a6470" stroke-width="0.9" stroke-linejoin="round"/>
<path d="M 739.33,233.30 L 792.64,186.93 L 795.75,242.74 Z" fill="#e0e0e0" stroke="#5a6470" stroke-width="0.9" stroke-linejoin="round"/>
<path d="M 714.82,356.44 L 694.80,295.87 L 749.47,297.33 Z" fill="#bcbcbc" stroke="#5a6470" stroke-width="0.9" stroke-linejoin="round"/>
<path d="M 858.10,160.64 L 901.68,200.20 L 841.01,203.66 Z" fill="#f6f6f6" stroke="#5a6470" stroke-width="0.9" stroke-linejoin="round"/>
<path d="M 1027.58,344.47 L 1005.54,272.69 L 1059.54,293.88 Z" fill="#eeeeee" stroke="#5a6470" stroke-width="0.9" stroke-linejoin="round"/>
<path d="M 795.75,242.74 L 792.64,186.93 L 841.01,203.66 Z" fill="#e8e8e8" stroke="#5a6470" stroke-width="0.9" stroke-linejoin="round"/>
<path d="M 749.47,297.33 L 739.33,233.30 L 795.75,242.74 Z" fill="#d6d6d6" stroke="#5a6470" stroke-width="0.9" stroke-linejoin="round"/>
<path d="M 741.75,421.49 L 805.84,433.51 L 772.38,483.30 Z" fill="#9e9e9e" stroke="#5a6470" stroke-width="0.9" stroke-linejoin="round"/>
<path d="M 1035.17,416.59 L 982.46,461.06 L 982.46,395.36 Z" fill="#cbcbcb" stroke="#5a6470" stroke-width="0.9" stroke-linejoin="round"/>
<path d="M 805.84,433.51 L 846.55,492.33 L 772.38,483.30 Z" fill="#9e9e9e" stroke="#5a6470" stroke-width="0.9" stroke-linejoin="round"/>
<path d="M 714.82,356.44 L 772.38,366.31 L 741.75,421.49 Z" fill="#adadad" stroke="#5a6470" stroke-width="0.9" stroke-linejoin="round"/>
<path d="M 1027.58,344.47 L 1035.17,416.59 L 982.46,395.36 Z" fill="#d9d9d9" stroke="#5a6470" stroke-width="0.9" stroke-linejoin="round"/>
<path d="M 933.49,256.94 L 901.68,200.20 L 971.21,208.29 Z" fill="#f9f9f9" stroke="#5a6470" stroke-width="0.9" stroke-linejoin="round"/>
<path d="M 933.49,256.94 L 971.21,208.29 L 1005.54,272.69 Z" fill="#f8f8f8" stroke="#5a6470" stroke-width="0.9" stroke-linejoin="round"/>
<path d="M 714.82,356.44 L 749.47,297.33 L 772.38,366.31 Z" fill="#bebebe" stroke="#5a6470" stroke-width="0.9" stroke-linejoin="round"/>
<path d="M 916.99,487.35 L 936.91,435.34 L 982.46,461.06 Z" fill="#b6b6b6" stroke="#5a6470" stroke-width="0.9" stroke-linejoin="round"/>
<path d="M 863.14,250.94 L 841.01,203.66 L 901.68,200.20 Z" fill="#f2f2f2" stroke="#5a6470" stroke-width="0.9" stroke-linejoin="round"/>
<path d="M 876.53,437.90 L 916.99,487.35 L 846.55,492.33 Z" fill="#a8a8a8" stroke="#5a6470" stroke-width="0.9" stroke-linejoin="round"/>
<path d="M 963.13,328.53 L 1005.54,272.69 L 1027.58,344.47 Z" fill="#ebebeb" stroke="#5a6470" stroke-width="0.9" stroke-linejoin="round"/>
<path d="M 795.75,242.74 L 841.01,203.66 L 863.14,250.94 Z" fill="#eaeaea" stroke="#5a6470" stroke-width="0.9" stroke-linejoin="round"/>
<path d="M 741.75,421.49 L 772.38,366.31 L 805.84,433.51 Z" fill="#adadad" stroke="#5a6470" stroke-width="0.9" stroke-linejoin="round"/>
<path d="M 982.46,395.36 L 982.46,461.06 L 936.91,435.34 Z" fill="#c7c7c7" stroke="#5a6470" stroke-width="0.9" stroke-linejoin="round"/>
<path d="M 749.47,297.33 L 795.75,242.74 L 816.91,303.75 Z" fill="#d8d8d8" stroke="#5a6470" stroke-width="0.9" stroke-linejoin="round"/>
<path d="M 863.14,250.94 L 901.68,200.20 L 933.49,256.94 Z" fill="#f4f4f4" stroke="#5a6470" stroke-width="0.9" stroke-linejoin="round"/>
<path d="M 805.84,433.51 L 876.53,437.90 L 846.55,492.33 Z" fill="#a9a9a9" stroke="#5a6470" stroke-width="0.9" stroke-linejoin="round"/>
<path d="M 982.46,395.36 L 963.13,328.53 L 1027.58,344.47 Z" fill="#e1e1e1" stroke="#5a6470" stroke-width="0.9" stroke-linejoin="round"/>
<path d="M 963.13,328.53 L 933.49,256.94 L 1005.54,272.69 Z" fill="#f0f0f0" stroke="#5a6470" stroke-width="0.9" stroke-linejoin="round"/>
<path d="M 876.53,437.90 L 936.91,435.34 L 916.99,487.35 Z" fill="#b5b5b5" stroke="#5a6470" stroke-width="0.9" stroke-linejoin="round"/>
<path d="M 749.47,297.33 L 816.91,303.75 L 772.38,366.31 Z" fill="#cccccc" stroke="#5a6470" stroke-width="0.9" stroke-linejoin="round"/>
<path d="M 795.75,242.74 L 863.14,250.94 L 816.91,303.75 Z" fill="#e3e3e3" stroke="#5a6470" stroke-width="0.9" stroke-linejoin="round"/>
<path d="M 772.38,366.31 L 846.55,375.34 L 805.84,433.51 Z" fill="#bdbdbd" stroke="#5a6470" stroke-width="0.9" stroke-linejoin="round"/>
<path d="M 936.91,435.34 L 916.99,381.05 L 982.46,395.36 Z" fill="#d0d0d0" stroke="#5a6470" stroke-width="0.9" stroke-linejoin="round"/>
<path d="M 805.84,433.51 L 846.55,375.34 L 876.53,437.90 Z" fill="#bcbcbc" stroke="#5a6470" stroke-width="0.9" stroke-linejoin="round"/>
<path d="M 916.99,381.05 L 963.13,328.53 L 982.46,395.36 Z" fill="#dbdbdb" stroke="#5a6470" stroke-width="0.9" stroke-linejoin="round"/>
<path d="M 890.53,314.50 L 863.14,250.94 L 933.49,256.94 Z" fill="#ececec" stroke="#5a6470" stroke-width="0.9" stroke-linejoin="round"/>
<path d="M 876.53,437.90 L 916.99,381.05 L 936.91,435.34 Z" fill="#c6c6c6" stroke="#5a6470" stroke-width="0.9" stroke-linejoin="round"/>
<path d="M 772.38,366.31 L 816.91,303.75 L 846.55,375.34 Z" fill="#cccccc" stroke="#5a6470" stroke-width="0.9" stroke-linejoin="round"/>
<path d="M 890.53,314.50 L 933.49,256.94 L 963.13,328.53 Z" fill="#ebebeb" stroke="#5a6470" stroke-width="0.9" stroke-linejoin="round"/>
<path d="M 816.91,303.75 L 863.14,250.94 L 890.53,314.50 Z" fill="#e3e3e3" stroke="#5a6470" stroke-width="0.9" stroke-linejoin="round"/>
<path d="M 846.55,375.34 L 916.99,381.05 L 876.53,437.90 Z" fill="#c9c9c9" stroke="#5a6470" stroke-width="0.9" stroke-linejoin="round"/>
<path d="M 916.99,381.05 L 890.53,314.50 L 963.13,328.53 Z" fill="#e0e0e0" stroke="#5a6470" stroke-width="0.9" stroke-linejoin="round"/>
<path d="M 816.91,303.75 L 890.53,314.50 L 846.55,375.34 Z" fill="#d8d8d8" stroke="#5a6470" stroke-width="0.9" stroke-linejoin="round"/>
<path d="M 846.55,375.34 L 890.53,314.50 L 916.99,381.05 Z" fill="#d7d7d7" stroke="#5a6470" stroke-width="0.9" stroke-linejoin="round"/>
<g stroke="#2b333d" stroke-width="2.4" stroke-linecap="round" fill="none"><line x1="685.84" y1="207.38" x2="727.39" y2="163.77"/><line x1="1017.04" y1="155.44" x2="1020.67" y2="156.42"/><line x1="1020.67" y1="156.42" x2="1068.63" y2="199.96"/><line x1="1074.16" y1="488.62" x2="1094.97" y2="450.13"/><line x1="1094.97" y1="450.13" x2="1098.08" y2="440.24"/><line x1="832.05" y1="115.17" x2="858.32" y2="111.19"/><line x1="858.32" y1="111.19" x2="901.90" y2="110.15"/><line x1="643.42" y1="307.90" x2="643.42" y2="380.20"/><line x1="1068.63" y1="199.96" x2="1101.74" y2="258.96"/><line x1="760.00" y1="144.10" x2="788.79" y2="127.66"/><line x1="788.79" y1="127.66" x2="832.05" y2="115.17"/><line x1="1101.74" y1="258.96" x2="1116.58" y2="315.80"/><line x1="643.42" y1="380.20" x2="658.26" y2="437.04"/><line x1="665.03" y1="245.87" x2="685.84" y2="207.38"/><line x1="727.39" y1="163.77" x2="760.00" y2="144.10"/><line x1="691.37" y1="496.04" x2="694.80" y2="485.16"/><line x1="658.26" y1="437.04" x2="691.37" y2="496.04"/><line x1="1116.58" y1="315.80" x2="1116.58" y2="388.10"/><line x1="901.90" y1="110.15" x2="967.36" y2="124.47"/><line x1="1098.08" y1="440.24" x2="1116.58" y2="388.10"/><line x1="967.36" y1="124.47" x2="1017.04" y2="155.44"/><line x1="643.42" y1="307.90" x2="665.03" y2="245.87"/><line x1="1059.54" y1="490.98" x2="1074.16" y2="488.62"/><line x1="694.80" y1="485.16" x2="714.82" y2="462.74"/><line x1="1027.58" y1="481.99" x2="1059.54" y2="490.98"/><line x1="714.82" y1="462.74" x2="772.38" y2="483.30"/><line x1="982.46" y1="461.06" x2="1027.58" y2="481.99"/><line x1="772.38" y1="483.30" x2="846.55" y2="492.33"/><line x1="916.99" y1="487.35" x2="982.46" y2="461.06"/><line x1="846.55" y1="492.33" x2="916.99" y2="487.35"/></g>
  </g>
  <line x1="640.5" y1="364.0" x2="1119.5" y2="364.0"
        stroke="#2b333d" stroke-width="2.6" stroke-linecap="round"/>

  <!-- wordmark -->
  <g transform="translate(96 0)" font-family="Lora">
    <g transform="translate(2 92)">
      <rect x="0" y="0" width="236" height="32" rx="16" fill="#ffffff" fill-opacity="0.55" stroke="#7e9bc9" stroke-width="1.3"/>
      <text x="118" y="21" text-anchor="middle" fill="#3a567f" font-size="13" letter-spacing="3" font-family="DejaVu Sans">RL · ROBOTICS · VLA</text>
    </g>

    <text x="-3" y="214" fill="#16233f" font-size="108" font-weight="bold">Geodesic</text>

    <text x="2" y="262" fill="#41557a" font-size="25" font-style="italic">The shortest path to deployment</text>
    <text x="2" y="296" fill="#41557a" font-size="25" font-style="italic">for reinforcement learning</text>

    <g transform="translate(2 332)" font-family="DejaVu Sans" font-size="17" font-weight="bold" letter-spacing="0.3">
      <g><rect width="66" height="32" rx="8" fill="#ffffff" fill-opacity="0.7" stroke="#9cb6dd"/><text x="33" y="22" text-anchor="middle" fill="#1f7aa8">JAX</text></g>
      <g transform="translate(78 0)"><rect width="112" height="32" rx="8" fill="#ffffff" fill-opacity="0.7" stroke="#9cb6dd"/><text x="56" y="22" text-anchor="middle" fill="#1f8f78">PyTorch</text></g>
      <g transform="translate(202 0)"><rect width="64" height="32" rx="8" fill="#ffffff" fill-opacity="0.7" stroke="#9cb6dd"/><text x="32" y="22" text-anchor="middle" fill="#c07d10">Ray</text></g>
      <g transform="translate(278 0)"><rect width="116" height="32" rx="8" fill="#ffffff" fill-opacity="0.7" stroke="#9cb6dd"/><text x="58" y="22" text-anchor="middle" fill="#a23fb0">OpenVLA</text></g>
    </g>
  </g>
</svg>
